# xmcd
#
# Track frame offsets:
#	151
#	21254
#	33201
#	50124
#	70263
#	82420
#
# Disc length: 1310 seconds
#
# Revision: 1
# Processed by: cddbd v1.5.2PL0 Copyright (c) Steve Scherf et al.
# Submitted via: audiograbber 1.83.01
#
DISCID=51051c06
DTITLE=The Molly Blooms - A Taste of
DYEAR=1900
DGENRE=
TTITLE0=Reel in F - Bobby Casey's - Mother's Delight
TTITLE1=Come Early Morning
TTITLE2=The Lowlands of Holland
TTITLE3=The Boys of Tandernandee - Sony Brogan's - Clare Jig
TTITLE4=Sliabh Gallion Braes
TTITLE5=Farewell to Nova Scotia
EXTD=
EXTT0=
EXTT1=
EXTT2=
EXTT3=
EXTT4=
EXTT5=
PLAYORDER=
